<?xml version="1.0" encoding="UTF-8"?>
<svg id="Camada_2" data-name="Camada 2" xmlns="http://www.w3.org/2000/svg" viewBox="0 0 511.52 511.52">
  <defs>
    <style>
      .cls-1 {
        fill: #1e1e1e;
      }

      .cls-2 {
        fill: #2563eb;
      }
    </style>
  </defs>
  <g id="Camada_1-2" data-name="Camada 1">
    <g>
      <rect class="cls-1" width="511.52" height="511.52" rx="44" ry="44"/>
      <path class="cls-2" d="M342.44,111.32c-31.87,0-57.77,25.89-57.77,57.77,0,21.32,11.67,39.75,28.88,49.77v8s0,57.77-57.77,57.77c-23.95,0-42.71,5.14-57.77,13v-136.53c17.22-10.02,28.88-28.45,28.88-49.77,0-31.89-25.89-57.77-57.77-57.77s-57.77,25.89-57.77,57.77c0,21.32,11.66,39.75,28.88,49.77v189.31c-17.22,10.02-28.88,28.44-28.88,49.75,0,31.87,25.89,57.77,57.77,57.77s57.77-25.9,57.77-57.77c0-15.12-5.96-28.77-15.46-39.1,8.41-10.32,22.07-18.67,44.35-18.67,114.63,0,115.53-115.53,115.53-115.53v-8c17.2-10.02,28.88-28.45,28.88-49.77,0-31.89-25.9-57.77-57.77-57.77h.03ZM169.14,82.44c15.98,0,28.88,12.9,28.88,28.88s-12.9,28.88-28.88,28.88-28.88-12.9-28.88-28.88,12.9-28.88,28.88-28.88ZM169.14,429.06c-15.98,0-28.88-12.92-28.88-28.88s12.9-28.88,28.88-28.88,28.88,12.95,28.88,28.88-12.9,28.88-28.88,28.88ZM342.44,197.98c-15.96,0-28.88-12.9-28.88-28.88s12.92-28.88,28.88-28.88,28.88,12.9,28.88,28.88-12.92,28.88-28.88,28.88Z"/>
    </g>
  </g>
</svg>